<svg version="1.2" xmlns="http://www.w3.org/2000/svg" viewBox="0 0 107 110" width="107" height="110">
	<title>icon-2-1-svg</title>
	<style>
		.s0 { opacity: .5;fill: #e7eaf3 } 
		.s1 { fill: none;stroke: #bdc5d1;stroke-linecap: round;stroke-linejoin: round;stroke-width: 3 } 
		.s2 { fill: #bdc5d1 } 
		.s3 { fill: #337afe } 
		.s4 { fill: #ffffff } 
	</style>
	<path id="Path_5-2" class="s0" d="m78 69.3h-38.9q-1.5 0-2.8-0.5-1.4-0.6-2.4-1.6-1-1.1-1.6-2.4-0.5-1.3-0.5-2.8 0-1.5 0.5-2.8 0.6-1.3 1.6-2.4 1-1 2.4-1.6 1.3-0.5 2.8-0.5h38.9q1.4 0 2.8 0.5 1.3 0.6 2.3 1.6 1.1 1.1 1.6 2.4 0.6 1.3 0.6 2.8 0 1.5-0.6 2.8-0.5 1.4-1.5 2.4-1.1 1-2.4 1.6-1.4 0.5-2.8 0.5zm0-30h-38.9q-1.5 0-2.8-0.5-1.4-0.6-2.4-1.6-1-1.1-1.6-2.4-0.5-1.3-0.5-2.8 0-1.5 0.5-2.8 0.6-1.3 1.6-2.4 1-1 2.4-1.6 1.3-0.5 2.8-0.5h38.9q1.4 0 2.8 0.5 1.3 0.6 2.3 1.6 1.1 1.1 1.6 2.4 0.6 1.3 0.6 2.8 0 1.5-0.6 2.8-0.5 1.4-1.5 2.4-1.1 1-2.4 1.6-1.4 0.5-2.8 0.5zm0 59h-38.9q-1.5 0-2.8-0.5-1.4-0.6-2.4-1.6-1-1.1-1.6-2.4-0.5-1.3-0.5-2.8 0-1.5 0.5-2.8 0.6-1.3 1.6-2.4 1-1 2.4-1.6 1.3-0.5 2.8-0.5h38.9q1.4 0 2.8 0.5 1.3 0.6 2.3 1.6 1.1 1.1 1.6 2.4 0.6 1.3 0.6 2.8 0 1.5-0.6 2.8-0.5 1.4-1.5 2.4-1.1 1-2.4 1.6-1.4 0.5-2.8 0.5z"/>
	<path id="Path_4" class="s1" d="m15 70.4v-64.6l4.4-4.3 4.3 4.3 4.3-4.3 4.3 4.3 4.3-4.3 4.3 4.3 4.3-4.3 4.3 4.3 4.3-4.3 4.3 4.3 4.3-4.3 4.3 4.3 4.3-4.3 4.3 4.3 4.3-4.3 4.3 4.3 5-4.3 4.4 4.3v96.5q0 1.2 0.4 2.2 0.5 1.1 1.3 1.9 0.8 0.8 1.9 1.3 1 0.4 2.2 0.4 1.1 0 2.2-0.4 1.1-0.5 1.9-1.3 0.8-0.8 1.2-1.9 0.5-1 0.5-2.2v-94.3h-5.8v93.1m-0.1 7h-73"/>
	<path id="Path_6" class="s2" d="m73 91.8h-38.9q-1.5 0-2.8-0.5-1.4-0.6-2.4-1.6-1-1.1-1.6-2.4-0.5-1.3-0.5-2.8 0-1.5 0.5-2.8 0.6-1.3 1.6-2.4 1-1 2.4-1.6 1.3-0.5 2.8-0.5h38.9q1.4 0 2.8 0.5 1.3 0.6 2.3 1.6 1.1 1.1 1.6 2.4 0.6 1.3 0.6 2.8 0 1.5-0.6 2.8-0.5 1.4-1.5 2.4-1.1 1-2.4 1.6-1.4 0.5-2.8 0.5zm0-29h-38.9q-1.5 0-2.8-0.5-1.4-0.6-2.4-1.6-1-1.1-1.6-2.4-0.5-1.3-0.5-2.8 0-1.5 0.5-2.8 0.6-1.3 1.6-2.4 1-1 2.4-1.6 1.3-0.5 2.8-0.5h38.9q1.4 0 2.8 0.5 1.3 0.6 2.3 1.6 1.1 1.1 1.6 2.4 0.6 1.3 0.6 2.8 0 1.5-0.6 2.8-0.5 1.4-1.5 2.4-1.1 1-2.4 1.6-1.4 0.5-2.8 0.5z"/>
	<path id="Path_6-3" class="s3" d="m73 32.8h-38.9q-1.5 0-2.8-0.5-1.4-0.6-2.4-1.6-1-1.1-1.6-2.4-0.5-1.3-0.5-2.8 0-1.5 0.5-2.8 0.6-1.3 1.6-2.4 1-1 2.4-1.6 1.3-0.5 2.8-0.5h38.9q1.4 0 2.8 0.5 1.3 0.6 2.3 1.6 1.1 1.1 1.6 2.4 0.6 1.3 0.6 2.8 0 1.5-0.6 2.8-0.5 1.4-1.5 2.4-1.1 1-2.4 1.6-1.4 0.5-2.8 0.5zm-71.5 48h12.5m-12.5 7.5h18.9m-18.9 7.6l7.4 0.1m7-0.1h4.5"/>
	<path id="Path_7-2" class="s4" d="m65.3 57.1h-23.5q-0.3 0-0.6-0.1-0.3-0.1-0.6-0.4-0.2-0.2-0.3-0.5-0.1-0.3-0.1-0.6 0-0.3 0.1-0.6 0.1-0.3 0.3-0.5 0.3-0.3 0.6-0.4 0.3-0.1 0.6-0.1h23.5q0.3 0 0.6 0.1 0.3 0.1 0.5 0.4 0.2 0.2 0.4 0.5 0.1 0.3 0.1 0.6 0 0.3-0.2 0.6-0.1 0.3-0.3 0.5-0.2 0.2-0.5 0.4-0.3 0.1-0.6 0.1zm0-30h-23.5q-0.3 0-0.6-0.1-0.3-0.1-0.6-0.4-0.2-0.2-0.3-0.5-0.1-0.3-0.1-0.6 0-0.3 0.1-0.6 0.1-0.3 0.3-0.5 0.3-0.3 0.6-0.4 0.3-0.1 0.6-0.1h23.5q0.3 0 0.6 0.1 0.3 0.1 0.5 0.4 0.2 0.2 0.4 0.5 0.1 0.3 0.1 0.6 0 0.3-0.2 0.6-0.1 0.3-0.3 0.5-0.2 0.2-0.5 0.4-0.3 0.1-0.6 0.1z"/>
</svg>