<svg version="1.2" xmlns="http://www.w3.org/2000/svg" viewBox="0 0 121 120" width="121" height="120">
	<title>icon-51-svg</title>
	<style>
		.s0 { opacity: .4;fill: #bdc5d1 } 
		.s1 { fill: #337afe } 
		.s2 { fill: #bdc5d1 } 
	</style>
	<path id="Path_1" class="s0" d="m95.3 117.8q0.1 0.5-0.1 1-0.2 0.5-0.7 0.8-0.4 0.3-0.9 0.4h-91.9q-0.5-0.1-0.9-0.4-0.5-0.3-0.7-0.8-0.2-0.4-0.1-0.9 0.1-0.5 0.4-0.9l37-47q0.2-0.3 0.6-0.5 0.3-0.1 0.7-0.1 0.4 0 0.7 0.1 0.3 0.2 0.6 0.5l13 16.5q0.2 0.2 0.6 0.4 0.3 0.2 0.7 0.1 0.4 0 0.7-0.2 0.4-0.1 0.6-0.4l6.1-8.6q0.2-0.4 0.5-0.5 0.4-0.2 0.8-0.2 0.3 0 0.7 0.1 0.3 0.2 0.6 0.5l30.6 39.2q0.3 0.4 0.4 0.9z"/>
	<path id="Path_2" class="s1" d="m118.4 106.4h-93.8c-1.4 0-2.2-2-1.3-3.3l37.7-52.2q0.2-0.4 0.5-0.5 0.4-0.2 0.8-0.2 0.4 0 0.7 0.2 0.4 0.1 0.6 0.5l13.1 18.4q0.2 0.3 0.6 0.5 0.3 0.2 0.8 0.2 0.4 0 0.7-0.3 0.4-0.2 0.6-0.5l6.3-9.6q0.2-0.4 0.5-0.6 0.4-0.2 0.8-0.2 0.4 0 0.8 0.2 0.3 0.1 0.6 0.5l31.2 43.5c1 1.3 0.3 3.3-1.2 3.4zm-112.4-47.5l-3.3-2.9q-0.2-0.2-0.3-0.4-0.1-0.3-0.2-0.5 0-0.3 0.1-0.5 0-0.2 0.2-0.4l33.6-39q0.1-0.2 0.4-0.3 0.2-0.2 0.4-0.2 0.3 0 0.5 0 0.3 0.1 0.5 0.3l3.4 2.9q0.2 0.1 0.3 0.3 0.1 0.3 0.1 0.5 0.1 0.3 0 0.5-0.1 0.2-0.2 0.5l-33.6 39q-0.2 0.2-0.4 0.3-0.2 0.2-0.5 0.2-0.3 0-0.6-0.1-0.2-0.1-0.4-0.2zm38.7-43l-5.4-4.7c-0.3-0.2-0.3-0.7-0.1-1.1l4.5-5.2q0.1-0.1 0.3-0.2 0.1-0.1 0.3-0.1 0.1 0 0.3 0 0.1 0.1 0.3 0.2l5.3 4.7q0.1 0.1 0.1 0.2 0.1 0.2 0.1 0.3 0 0.2 0 0.4 0 0.1-0.1 0.3l-4.5 5.2q-0.1 0.1-0.3 0.1-0.1 0.1-0.3 0.1-0.1 0-0.3-0.1-0.1 0-0.2-0.1z"/>
	<path id="Path_5" class="s2" d="m40.3 4.8l-1.8 2.2q-0.1 0.1-0.3 0.1-0.1 0.1-0.3 0.1-0.1 0.1-0.3 0-0.2 0-0.3 0c-2.1-1.5-8.4-5.7-14.4-3.4-0.4 0-0.8 0-1-0.3q-0.2-0.2-0.2-0.4-0.1-0.2-0.1-0.4 0.1-0.3 0.2-0.4 0.1-0.2 0.3-0.3c2.7-1.5 10-4.2 18.1 1.6q0.1 0 0.2 0.2 0.1 0.1 0.1 0.3 0.1 0.2 0 0.4-0.1 0.1-0.2 0.3zm10.9 8.9q0.2-0.1 0.4-0.1 0.2 0 0.4 0.1 0.2 0.1 0.3 0.3c6.9 7.2 5.2 14.8 4.2 17.7q-0.1 0.2-0.3 0.3-0.2 0.1-0.4 0.2-0.2 0-0.4 0-0.3-0.1-0.4-0.2-0.1-0.1-0.2-0.2-0.1-0.1-0.1-0.2-0.1-0.2-0.1-0.3 0-0.1 0.1-0.2c1.2-6.3-3.8-12-5.6-13.8q-0.1-0.2-0.2-0.3 0-0.2 0-0.3 0-0.2 0-0.4 0.1-0.1 0.2-0.2l1.8-2.2q0.1-0.2 0.3-0.2zm40.3 30.3q-0.2-0.2-0.3-0.5-0.1-0.2-0.1-0.5-0.1-0.2 0-0.5 0.1-0.2 0.3-0.4l1.2-1.3q0.2-0.2 0.4-0.3 0.2-0.2 0.5-0.2 0.3 0 0.5 0.1 0.3 0.1 0.5 0.3 0.2 0.1 0.3 0.4 0.1 0.2 0.1 0.5 0 0.2-0.1 0.5 0 0.3-0.2 0.5l-1.2 1.3q-0.2 0.1-0.4 0.3-0.3 0.1-0.5 0.1-0.3 0-0.6-0.1-0.2-0.1-0.4-0.2zm5.8-6.7q-0.2-0.2-0.4-0.4-0.1-0.2-0.2-0.4-0.1-0.2 0-0.5 0-0.2 0.1-0.4 0.1-0.2 0.2-0.4 0.1-0.2 0.2-0.4 0-0.2 0.1-0.4 0.1-0.2 0.2-0.3 0.1-0.3 0.2-0.4 0.2-0.2 0.4-0.3 0.3-0.1 0.5-0.1 0.3 0 0.5 0.1 0.2 0 0.5 0.2 0.2 0.2 0.3 0.5 0.1 0.2 0.1 0.5 0 0.3-0.1 0.6-0.1 0.2-0.2 0.4-0.1 0.2-0.2 0.4-0.1 0.2-0.2 0.4-0.1 0.3-0.2 0.5-0.2 0.2-0.4 0.3-0.2 0.2-0.4 0.2-0.3 0.1-0.5 0-0.3 0-0.5-0.1zm3.5-7.9q-0.3-0.1-0.5-0.2-0.2 0-0.4-0.2-0.2-0.2-0.3-0.4-0.1-0.2-0.1-0.4 0-0.3 0-0.5-0.1-0.2-0.1-0.4 0-0.2 0-0.4-0.1-0.2-0.1-0.4-0.1-0.3 0-0.5 0-0.3 0.2-0.5 0.1-0.2 0.3-0.3 0.2-0.2 0.5-0.2 0.3-0.1 0.5-0.1 0.3 0.1 0.5 0.2 0.3 0.2 0.4 0.4 0.2 0.3 0.2 0.6 0 0.2 0.1 0.4 0 0.3 0 0.5 0 0.2 0.1 0.5 0 0.2 0 0.5 0 0.2-0.1 0.5 0 0.3-0.2 0.5-0.2 0.2-0.5 0.3-0.2 0.1-0.5 0.1zm-4.2-8.6c-0.3-0.5-0.6-1-0.9-1.4q-0.2-0.3-0.2-0.5-0.1-0.2-0.1-0.5 0.1-0.2 0.2-0.5 0.1-0.2 0.3-0.3 0.2-0.2 0.4-0.3 0.3-0.1 0.6-0.1 0.2 0.1 0.5 0.2 0.2 0.1 0.4 0.4 0.1 0.1 0.3 0.3 0.1 0.2 0.2 0.4 0.2 0.2 0.3 0.4 0.1 0.2 0.2 0.5 0.1 0.2 0.1 0.5 0.1 0.3 0 0.5-0.1 0.3-0.3 0.5-0.2 0.2-0.4 0.4-0.2 0.1-0.5 0.1-0.2 0-0.4-0.1-0.2 0-0.4-0.2-0.2-0.1-0.3-0.3zm-5.6-6.4l-1.3-1.3q-0.2-0.2-0.3-0.5-0.1-0.2-0.1-0.5 0-0.3 0.1-0.5 0.1-0.3 0.3-0.4 0.2-0.2 0.4-0.3 0.3-0.1 0.5-0.1 0.3 0 0.5 0.1 0.3 0.1 0.5 0.3l1.3 1.3q0.2 0.1 0.3 0.4 0.1 0.2 0.1 0.5 0 0.3-0.1 0.5-0.1 0.3-0.3 0.5-0.2 0.1-0.5 0.2-0.2 0.1-0.5 0.1-0.2 0-0.5-0.1-0.2-0.1-0.4-0.2zm-5.2-5.9l-1.4-1.1q-0.2-0.2-0.4-0.4-0.1-0.3-0.1-0.6-0.1-0.2 0-0.5 0.1-0.2 0.3-0.4 0.1-0.3 0.4-0.4 0.2-0.1 0.5-0.2 0.3 0 0.5 0.1 0.3 0.1 0.5 0.3l1.4 1.1q0.2 0.1 0.3 0.4 0.2 0.2 0.2 0.5 0 0.2-0.1 0.5 0 0.2-0.2 0.5-0.2 0.1-0.4 0.3-0.3 0.1-0.5 0.1-0.3 0-0.5 0-0.3-0.1-0.5-0.2zm-25.3 0.7q-0.2-0.2-0.4-0.4-0.1-0.3-0.1-0.6-0.1-0.2 0-0.5 0.1-0.2 0.3-0.4c0.4-0.5 0.9-0.9 1.3-1.4q0.2-0.2 0.4-0.3 0.3-0.1 0.6-0.1 0.2 0 0.5 0.1 0.2 0.1 0.4 0.4 0.1 0.1 0.2 0.4 0.1 0.2 0.1 0.5 0 0.2-0.1 0.4-0.1 0.3-0.3 0.5l-1.2 1.2q-0.2 0.1-0.4 0.3-0.2 0.1-0.4 0.1-0.3 0-0.5 0-0.2-0.1-0.4-0.2zm6.8-5.4q-0.1-0.3-0.1-0.6 0-0.3 0.1-0.5 0.1-0.3 0.3-0.5 0.2-0.1 0.5-0.2 0.2-0.1 0.4-0.2 0.2-0.1 0.5-0.1 0.2-0.1 0.4-0.1 0.3-0.1 0.5-0.1 0.3-0.1 0.5-0.1 0.3 0.1 0.5 0.2 0.3 0.2 0.4 0.4 0.2 0.3 0.2 0.6 0 0.2 0 0.4-0.1 0.3-0.2 0.5-0.2 0.2-0.4 0.4-0.2 0.1-0.4 0.2-0.2 0-0.4 0.1-0.2 0-0.4 0.1-0.2 0-0.4 0.1-0.2 0.1-0.4 0.2-0.3 0-0.5 0-0.2-0.1-0.4-0.2-0.3-0.1-0.4-0.3-0.2-0.1-0.3-0.3zm11.3 0.6q-0.2-0.1-0.4-0.2-0.2 0-0.4-0.1-0.2 0-0.4-0.1-0.2 0-0.4 0-0.3-0.1-0.5-0.2-0.2-0.1-0.3-0.3-0.1-0.2-0.2-0.5-0.1-0.2 0-0.4 0-0.3 0.1-0.6 0.2-0.2 0.4-0.4 0.3-0.1 0.5-0.2 0.3 0 0.6 0.1 0.2 0 0.4 0.1 0.3 0 0.5 0.1 0.2 0 0.4 0.1 0.3 0.1 0.5 0.2 0.2 0 0.4 0.2 0.3 0.2 0.4 0.5 0.1 0.2 0.1 0.5 0 0.3-0.1 0.6-0.1 0.1-0.3 0.3-0.2 0.1-0.4 0.2-0.2 0.1-0.5 0.1-0.2 0-0.4 0z"/>
</svg>