<svg version="1.2" xmlns="http://www.w3.org/2000/svg" viewBox="0 0 112 119" width="112" height="119">
	<title>icon-8-svg</title>
	<style>
		.s0 { fill: none;stroke: #bdc5d1;stroke-linecap: round;stroke-linejoin: round;stroke-width: 3 } 
		.s1 { opacity: .5;fill: #bdc5d1 } 
		.s2 { fill: none;stroke: #337afe;stroke-linecap: round;stroke-linejoin: round;stroke-width: 3 } 
		.s3 { fill: #337afe } 
		.s4 { fill: none;stroke: #ffffff;stroke-linecap: round;stroke-linejoin: round;stroke-width: 3 } 
	</style>
	<path id="Path_2" class="s0" d="m34.7 5.2c2.1-0.6 4.3-1.1 6.5-1.5m-31.8 16.9q1.4-1.5 2.9-2.8 1.6-1.4 3.2-2.7 1.6-1.2 3.3-2.4 1.6-1.2 3.4-2.2m-20.7 20.6c0.8-1.4 1.7-2.8 2.6-4.1m33.7 18.3h32.1m-62.6 0h23.2m-23.2 29.1h60.8m15.3 0h10.6m-43.4-60.6v92.1m43.5-61.3q0.6 1.8 1.1 3.7 0.5 1.9 0.9 3.8 0.3 1.9 0.4 3.8 0.2 2 0.2 3.9c0 18.6-11.2 35.4-28.4 42.6-17.2 7.1-37 3.2-50.2-10-13.2-13.1-17.1-32.9-10-50.1 7.1-17.2 23.9-28.5 42.5-28.5q1.7 0 3.4 0.1 1.8 0.1 3.5 0.4 1.7 0.2 3.4 0.6 1.6 0.4 3.3 0.9m11.1 30.5q0.3 1.7 0.5 3.4 0.3 1.7 0.4 3.4 0.2 1.7 0.2 3.4 0.1 1.7 0.1 3.4c0 25.5-11.6 46.1-25.9 46.1-14.3 0-25.9-20.6-25.9-46.1 0-25.5 11.6-46.1 25.9-46.1q1.2 0 2.3 0.2 1.1 0.2 2.2 0.5 1.1 0.4 2.2 0.9 1 0.5 2 1.1 0.6 0.4 1.2 0.8 0.5 0.4 1.1 0.8 0.5 0.4 1 0.9 0.5 0.5 1 1"/>
	<path id="Path_9" class="s1" d="m98.3 9.3c2.5 1 4.8 2.6 6.7 4.5 1.9 1.9 3.5 4.2 4.5 6.7 1.1 2.5 1.6 5.2 1.6 7.9 0 6.3-7.2 19.9-19 36q-0.2 0.2-0.3 0.3-0.2 0.2-0.5 0.3-0.2 0.1-0.4 0.2-0.3 0-0.5 0-0.2 0-0.5 0-0.2-0.1-0.5-0.2-0.2-0.1-0.4-0.2-0.2-0.2-0.3-0.4c-11.8-16.3-19-29.9-19-36 0-2.7 0.5-5.4 1.6-7.9 1-2.5 2.5-4.8 4.5-6.7 1.9-2 4.2-3.5 6.7-4.5 2.5-1.1 5.2-1.6 7.9-1.6 2.7 0 5.4 0.5 7.9 1.6z"/>
	<path id="Path_5" class="s2" d="m50.6 116.8q-3.5 0-7-0.4-3.6-0.5-7-1.3-3.4-0.9-6.7-2.2-3.3-1.3-6.4-3m52.1 1.1c-1.9 0.9-3.8 1.7-5.8 2.5m28.1-21.9q-0.8 1.1-1.6 2.2-0.8 1.1-1.7 2.2-0.8 1-1.7 2-0.9 1-1.9 2"/>
	<path id="Path_10" class="s3" d="m92.2 1.6c2.5 1.1 4.8 2.6 6.7 4.5 1.9 1.9 3.4 4.2 4.5 6.7 1 2.5 1.6 5.2 1.6 7.9 0 6.3-7.2 19.9-19 36q-0.2 0.2-0.3 0.3-0.2 0.2-0.5 0.3-0.2 0.1-0.4 0.2-0.3 0-0.5 0-0.2 0-0.5 0-0.2-0.1-0.5-0.2-0.2-0.1-0.4-0.2-0.2-0.2-0.3-0.4c-11.8-16.3-19-29.9-19-36 0-2.7 0.5-5.4 1.6-7.9 1-2.5 2.5-4.8 4.5-6.7 1.9-2 4.2-3.5 6.7-4.5 2.5-1.1 5.2-1.6 7.9-1.6 2.7 0 5.4 0.6 7.9 1.6z"/>
	<path id="Ellipse_1" class="s4" d="m84.3 30.4c-5.3 0-9.6-4.3-9.6-9.6 0-5.3 4.3-9.6 9.6-9.6 5.3 0 9.6 4.3 9.6 9.6 0 5.3-4.3 9.6-9.6 9.6z"/>
</svg>